<svg xmlns="http://www.w3.org/2000/svg" xmlns:xlink="http://www.w3.org/1999/xlink" width="300" zoomAndPan="magnify" viewBox="0 0 224.87999 60" height="80" preserveAspectRatio="xMidYMid meet" version="1.0"><defs><g/><clipPath id="fcbe6827b2"><path d="M 17 0.015625 L 67 0.015625 L 67 59.984375 L 17 59.984375 Z M 17 0.015625 " clip-rule="nonzero"/></clipPath><clipPath id="cfead6cca6"><path d="M 24.144531 0.765625 L 66.480469 6.214844 L 59.625 59.464844 L 17.289062 54.015625 Z M 24.144531 0.765625 " clip-rule="nonzero"/></clipPath><clipPath id="8033a71aaa"><path d="M 24.144531 0.765625 L 66.480469 6.214844 L 59.644531 59.328125 L 17.308594 53.878906 Z M 24.144531 0.765625 " clip-rule="nonzero"/></clipPath><clipPath id="7dd2d74165"><path d="M 17 0.015625 L 67 0.015625 L 67 59.984375 L 17 59.984375 Z M 17 0.015625 " clip-rule="nonzero"/></clipPath><clipPath id="3485b28e76"><path d="M 24.144531 0.765625 L 66.523438 6.21875 L 59.726562 59.007812 L 17.351562 53.550781 Z M 24.144531 0.765625 " clip-rule="nonzero"/></clipPath><clipPath id="13909905a8"><path d="M 24.144531 0.765625 L 66.789062 6.253906 L 59.882812 59.929688 L 17.234375 54.441406 Z M 24.144531 0.765625 " clip-rule="nonzero"/></clipPath><clipPath id="ea35ad309d"><path d="M 24.144531 0.765625 L 66.476562 6.214844 L 59.640625 59.324219 L 17.308594 53.875 Z M 24.144531 0.765625 " clip-rule="nonzero"/></clipPath><clipPath id="0b00a5110d"><path d="M 20.550781 3.269531 L 63.238281 3.269531 L 63.238281 56.824219 L 20.550781 56.824219 Z M 20.550781 3.269531 " clip-rule="nonzero"/></clipPath><clipPath id="1678e543bd"><path d="M 20.550781 3.273438 L 63.230469 3.273438 L 63.230469 56.492188 L 20.550781 56.492188 Z M 20.550781 3.273438 " clip-rule="nonzero"/></clipPath></defs><g clip-path="url(#fcbe6827b2)"><g clip-path="url(#cfead6cca6)"><g clip-path="url(#8033a71aaa)"><path fill="#fffefe" d="M 24.144531 0.765625 L 66.480469 6.214844 L 59.648438 59.296875 L 17.3125 53.851562 Z M 24.144531 0.765625 " fill-opacity="1" fill-rule="nonzero"/></g></g></g><g clip-path="url(#7dd2d74165)"><g clip-path="url(#3485b28e76)"><g clip-path="url(#13909905a8)"><g clip-path="url(#ea35ad309d)"><path stroke-linecap="butt" transform="matrix(0.743468, 0.0956877, -0.0956877, 0.743468, 24.144274, 0.766779)" fill="none" stroke-linejoin="miter" d="M 0.000144439 -0.00157097 L 56.938939 -0.000394691 L 56.93826 71.434388 L -0.000534838 71.433211 Z M 0.000144439 -0.00157097 " stroke="#000000" stroke-width="4" stroke-opacity="1" stroke-miterlimit="4"/></g></g></g></g><g clip-path="url(#0b00a5110d)"><path fill="#fffefe" d="M 20.550781 3.269531 L 63.238281 3.269531 L 63.238281 56.792969 L 20.550781 56.792969 Z M 20.550781 3.269531 " fill-opacity="1" fill-rule="nonzero"/></g><g clip-path="url(#1678e543bd)"><path stroke-linecap="butt" transform="matrix(0.7496, 0, 0, 0.7496, 20.551995, 3.271856)" fill="none" stroke-linejoin="miter" d="M -0.0016194 0.00211019 L 56.935002 0.00211019 L 56.935002 71.436048 L -0.0016194 71.436048 Z M -0.0016194 0.00211019 " stroke="#000000" stroke-width="4" stroke-opacity="1" stroke-miterlimit="4"/></g><g fill="#a51d21" fill-opacity="1"><g transform="translate(27.23341, 47.779225)"><g><path d="M -4.421875 -15.59375 C -4.546875 -16.476562 -4.320312 -17.382812 -3.75 -18.3125 C -3.1875 -19.25 -2.546875 -20.160156 -1.828125 -21.046875 C -1.109375 -21.929688 -0.0195312 -23.023438 1.4375 -24.328125 C 2.90625 -25.628906 4.5 -26.828125 6.21875 -27.921875 C 7.9375 -29.015625 10.078125 -30.050781 12.640625 -31.03125 C 15.210938 -32.007812 17.914062 -32.703125 20.75 -33.109375 C 23.207031 -33.453125 25.722656 -33.320312 28.296875 -32.71875 C 29.585938 -32.40625 30.691406 -31.835938 31.609375 -31.015625 C 32.523438 -30.191406 33.066406 -29.171875 33.234375 -27.953125 C 33.503906 -26.023438 32.613281 -23.941406 30.5625 -21.703125 C 28.519531 -19.472656 24.78125 -16.773438 19.34375 -13.609375 C 18.789062 -13.378906 18.53125 -13.140625 18.5625 -12.890625 C 18.570312 -12.804688 18.644531 -12.71875 18.78125 -12.625 C 23.488281 -8.488281 27.289062 -5.679688 30.1875 -4.203125 C 30.550781 -3.984375 30.75 -3.75 30.78125 -3.5 C 30.875 -2.863281 29.988281 -2.414062 28.125 -2.15625 C 26.269531 -1.894531 24.640625 -2.28125 23.234375 -3.3125 C 17.253906 -8.101562 13.46875 -11.332031 11.875 -13 C 11.820312 -13.113281 11.757812 -13.164062 11.6875 -13.15625 C 11.613281 -13.144531 11.546875 -13.070312 11.484375 -12.9375 C 7.648438 -6.59375 5.5 -2.484375 5.03125 -0.609375 C 5.09375 -0.148438 5.046875 0.0859375 4.890625 0.109375 C 4.734375 0.128906 4.46875 0.078125 4.09375 -0.046875 C 3.726562 -0.171875 3.320312 -0.453125 2.875 -0.890625 C 2.4375 -1.328125 2.164062 -1.894531 2.0625 -2.59375 C 1.96875 -3.289062 2.140625 -4.191406 2.578125 -5.296875 C 5.804688 -11.753906 9.398438 -17.304688 13.359375 -21.953125 C 15.035156 -23.910156 16.648438 -25.476562 18.203125 -26.65625 C 18.421875 -26.925781 18.640625 -27.078125 18.859375 -27.109375 C 19.078125 -27.140625 19.347656 -27.070312 19.671875 -26.90625 C 19.992188 -26.75 20.175781 -26.535156 20.21875 -26.265625 C 20.257812 -25.992188 20.175781 -25.742188 19.96875 -25.515625 C 16.757812 -21.222656 14.585938 -18.046875 13.453125 -15.984375 C 13.140625 -15.535156 12.992188 -15.238281 13.015625 -15.09375 C 13.035156 -14.945312 13.113281 -14.882812 13.25 -14.90625 L 13.421875 -14.921875 C 16.722656 -16.359375 19.363281 -17.691406 21.34375 -18.921875 C 25.550781 -21.585938 28.65625 -24.210938 30.65625 -26.796875 C 31.070312 -27.328125 31.25 -27.804688 31.1875 -28.234375 C 31.101562 -28.890625 30.484375 -29.3125 29.328125 -29.5 C 28.171875 -29.6875 26.398438 -29.609375 24.015625 -29.265625 C 21.628906 -28.929688 18.753906 -28.160156 15.390625 -26.953125 C 12.035156 -25.753906 8.753906 -24.117188 5.546875 -22.046875 C 2.335938 -19.984375 0.0507812 -17.789062 -1.3125 -15.46875 C -1.5 -15.1875 -1.582031 -14.992188 -1.5625 -14.890625 C -1.550781 -14.796875 -1.390625 -14.769531 -1.078125 -14.8125 C -0.765625 -14.851562 0.160156 -15.347656 1.703125 -16.296875 C 3.253906 -17.242188 4.566406 -18.140625 5.640625 -18.984375 C 7.296875 -20.472656 8.351562 -21.25 8.8125 -21.3125 C 8.988281 -21.34375 9.082031 -21.320312 9.09375 -21.25 C 9.101562 -21.175781 8.957031 -20.898438 8.65625 -20.421875 C 8.351562 -19.941406 7.925781 -19.328125 7.375 -18.578125 C 6.820312 -17.835938 6.132812 -17 5.3125 -16.0625 C 3.425781 -13.894531 1.582031 -12.6875 -0.21875 -12.4375 C -1.1875 -12.289062 -2.019531 -12.484375 -2.71875 -13.015625 C -3.425781 -13.546875 -3.882812 -14.117188 -4.09375 -14.734375 Z M -4.421875 -15.59375 "/></g></g></g><g fill="#000000" fill-opacity="1"><g transform="translate(64.866208, 43.885715)"><g><path d="M 4.328125 -11.671875 L 8.671875 -11.671875 L 8.671875 -8.78125 L 4.328125 -8.78125 L 4.328125 -2.875 L 9.796875 -2.875 L 9.796875 0 L 1.15625 0 L 1.15625 -20.171875 L 9.796875 -20.171875 L 9.796875 -17.28125 L 4.328125 -17.28125 Z M 4.328125 -11.671875 "/></g></g></g><g fill="#000000" fill-opacity="1"><g transform="translate(75.469424, 43.885715)"><g><path d="M 1.15625 -20.171875 L 6.171875 -20.171875 C 7.765625 -20.171875 8.945312 -19.75 9.71875 -18.90625 C 10.5 -18.0625 10.890625 -16.820312 10.890625 -15.1875 L 10.890625 -4.984375 C 10.890625 -3.347656 10.5 -2.109375 9.71875 -1.265625 C 8.945312 -0.421875 7.765625 0 6.171875 0 L 1.15625 0 Z M 4.328125 -17.28125 L 4.328125 -2.875 L 6.109375 -2.875 C 6.609375 -2.875 7 -3.019531 7.28125 -3.3125 C 7.570312 -3.601562 7.71875 -4.113281 7.71875 -4.84375 L 7.71875 -15.328125 C 7.71875 -16.054688 7.570312 -16.5625 7.28125 -16.84375 C 7 -17.132812 6.609375 -17.28125 6.109375 -17.28125 Z M 4.328125 -17.28125 "/></g></g></g><g fill="#000000" fill-opacity="1"><g transform="translate(87.225158, 43.885715)"><g/></g></g><g fill="#000000" fill-opacity="1"><g transform="translate(91.691185, 43.885715)"><g><path d="M 1.15625 -20.171875 L 4.328125 -20.171875 L 4.328125 -2.875 L 9.53125 -2.875 L 9.53125 0 L 1.15625 0 Z M 1.15625 -20.171875 "/></g></g></g><g fill="#000000" fill-opacity="1"><g transform="translate(101.458817, 43.885715)"><g><path d="M 4.328125 -11.671875 L 8.671875 -11.671875 L 8.671875 -8.78125 L 4.328125 -8.78125 L 4.328125 -2.875 L 9.796875 -2.875 L 9.796875 0 L 1.15625 0 L 1.15625 -20.171875 L 9.796875 -20.171875 L 9.796875 -17.28125 L 4.328125 -17.28125 Z M 4.328125 -11.671875 "/></g></g></g><g fill="#000000" fill-opacity="1"><g transform="translate(112.062034, 43.885715)"><g><path d="M 0.234375 -20.171875 L 10.03125 -20.171875 L 10.03125 -17.28125 L 6.71875 -17.28125 L 6.71875 0 L 3.546875 0 L 3.546875 -17.28125 L 0.234375 -17.28125 Z M 0.234375 -20.171875 "/></g></g></g><g fill="#000000" fill-opacity="1"><g transform="translate(122.31949, 43.885715)"><g><path d="M 0.234375 -20.171875 L 10.03125 -20.171875 L 10.03125 -17.28125 L 6.71875 -17.28125 L 6.71875 0 L 3.546875 0 L 3.546875 -17.28125 L 0.234375 -17.28125 Z M 0.234375 -20.171875 "/></g></g></g><g fill="#000000" fill-opacity="1"><g transform="translate(132.576946, 43.885715)"><g><path d="M 4.328125 -11.671875 L 8.671875 -11.671875 L 8.671875 -8.78125 L 4.328125 -8.78125 L 4.328125 -2.875 L 9.796875 -2.875 L 9.796875 0 L 1.15625 0 L 1.15625 -20.171875 L 9.796875 -20.171875 L 9.796875 -17.28125 L 4.328125 -17.28125 Z M 4.328125 -11.671875 "/></g></g></g><g fill="#000000" fill-opacity="1"><g transform="translate(143.180163, 43.885715)"><g><path d="M 7.78125 0 C 7.738281 -0.132812 7.695312 -0.257812 7.65625 -0.375 C 7.625 -0.488281 7.59375 -0.628906 7.5625 -0.796875 C 7.53125 -0.972656 7.507812 -1.195312 7.5 -1.46875 C 7.488281 -1.738281 7.484375 -2.078125 7.484375 -2.484375 L 7.484375 -5.640625 C 7.484375 -6.585938 7.320312 -7.253906 7 -7.640625 C 6.675781 -8.023438 6.148438 -8.21875 5.421875 -8.21875 L 4.328125 -8.21875 L 4.328125 0 L 1.15625 0 L 1.15625 -20.171875 L 5.9375 -20.171875 C 7.582031 -20.171875 8.773438 -19.785156 9.515625 -19.015625 C 10.253906 -18.242188 10.625 -17.082031 10.625 -15.53125 L 10.625 -13.9375 C 10.625 -11.863281 9.9375 -10.503906 8.5625 -9.859375 C 9.363281 -9.523438 9.910156 -8.988281 10.203125 -8.25 C 10.503906 -7.507812 10.65625 -6.613281 10.65625 -5.5625 L 10.65625 -2.453125 C 10.65625 -1.953125 10.675781 -1.515625 10.71875 -1.140625 C 10.757812 -0.765625 10.851562 -0.382812 11 0 Z M 4.328125 -17.28125 L 4.328125 -11.09375 L 5.5625 -11.09375 C 6.15625 -11.09375 6.617188 -11.242188 6.953125 -11.546875 C 7.296875 -11.859375 7.46875 -12.414062 7.46875 -13.21875 L 7.46875 -15.21875 C 7.46875 -15.945312 7.335938 -16.472656 7.078125 -16.796875 C 6.816406 -17.117188 6.40625 -17.28125 5.84375 -17.28125 Z M 4.328125 -17.28125 "/></g></g></g><g fill="#000000" fill-opacity="1"><g transform="translate(154.76302, 43.885715)"><g/></g></g><g fill="#000000" fill-opacity="1"><g transform="translate(159.229048, 43.885715)"><g><path d="M 11.40625 0 L 8.21875 0 L 7.671875 -3.65625 L 3.78125 -3.65625 L 3.234375 0 L 0.3125 0 L 3.546875 -20.171875 L 8.1875 -20.171875 Z M 4.171875 -6.390625 L 7.234375 -6.390625 L 5.703125 -16.59375 Z M 4.171875 -6.390625 "/></g></g></g><g fill="#000000" fill-opacity="1"><g transform="translate(170.95597, 43.885715)"><g><path d="M 1.15625 -20.171875 L 4.328125 -20.171875 L 4.328125 0 L 1.15625 0 Z M 1.15625 -20.171875 "/></g></g></g></svg>